<?xml version="1.0" encoding="UTF-8"?>
<svg id="Background" xmlns="http://www.w3.org/2000/svg" viewBox="0 0 360 360">
  <defs>
    <style>
      .cls-1 {
        fill: #fff;
      }
    </style>
  </defs>
  <rect x="-8.74" y="-8.89" width="378" height="378"/>
  <g>
    <path class="cls-1" d="M293.7,219.06c-2.31,0-5.09-.04-6.77-.12v.08c2.97.65,7.1,1.69,11.69,2.96v3.34c-4.26.99-8.68,2.04-11.71,2.67v.09c1.68-.11,4.49-.21,6.95-.21h4.76v3.62h-14.34v-5.86c3.32-.9,7.35-1.84,9.55-2.22v-.04c-2.29-.43-6.16-1.5-9.55-2.48v-5.74h14.34v3.91h-4.92Z"/>
    <path class="cls-1" d="M284.28,208v-6.37c0-4.65,2.95-7.3,6.98-7.3,4.26,0,7.36,2.84,7.36,7.39v6.28h-14.34ZM295.63,203.95v-1.91c0-2.4-1.62-3.5-4.34-3.5-2.32,0-4.02.97-4.03,3.47v1.94h8.37Z"/>
    <path class="cls-1" d="M294.31,184.89c1.2-.29,1.8-1.17,1.8-2.8,0-1.52-.5-2.1-1.35-2.1-.94,0-1.35.61-1.87,3.06-.96,4.52-2.56,5.37-4.48,5.37-2.61,0-4.4-2.13-4.4-5.91,0-4.32,2.17-5.99,4.31-6.18v3.96c-.73.13-1.55.54-1.55,2.26,0,1.15.41,1.79,1.21,1.79s1.11-.56,1.61-2.83c1.03-4.71,2.64-5.64,4.72-5.64,2.68,0,4.58,2.1,4.58,6.46s-1.89,6.22-4.58,6.58v-4Z"/>
    <path class="cls-1" d="M284.28,169.71v-6.92c0-3.25,1.75-5.48,4.59-5.48,3.14,0,4.71,2.38,4.71,5.54v2.83h5.04v4.02h-14.34ZM290.65,165.69v-2.24c0-1.25-.49-2.12-1.73-2.12s-1.73.81-1.73,2.1v2.26h3.46Z"/>
  </g>
  <g>
    <path class="cls-1" d="M128.76,172.54c-.38-2.4-.9-4.43-1.56-6.11-.66-1.68-1.52-3.27-2.58-4.78-1.06-1.51-2.35-2.71-3.85-3.6-1.51-.89-3.3-1.59-5.38-2.1-2.08-.51-4.46-.76-7.13-.76-4.29,0-7.89.62-10.79,1.85-2.91,1.23-5.19,3.15-6.84,5.76-1.66,2.61-2.83,5.71-3.53,9.3-.7,3.59-1.05,7.99-1.05,13.21v17.25c0,5.18.33,9.54.99,13.08.66,3.54,1.8,6.64,3.44,9.3,1.63,2.65,3.92,4.61,6.84,5.86,2.93,1.25,6.6,1.88,11.02,1.88,14.18,0,21.27-8.13,21.27-24.39v-1.47c0-.81-.65-1.46-1.46-1.46h-10.7c-.81,0-1.46.65-1.46,1.46v3.12c0,4.16-.54,7.27-1.62,9.33-1.08,2.06-3.13,3.09-6.14,3.09-1.36,0-2.52-.18-3.47-.54-.96-.36-1.73-.99-2.32-1.88-.6-.89-1.06-1.74-1.4-2.55-.34-.81-.58-2.03-.73-3.66-.15-1.63-.23-2.96-.25-3.98-.02-1.02-.03-2.59-.03-4.71v-9.43c0-.81.65-1.46,1.46-1.46h26.76c.8,0,1.45-.65,1.46-1.45l.05-4.67c0-3.18-.06-5.96-.19-8.34-.13-2.38-.38-4.76-.76-7.16ZM115.96,185.12c0,.81-.65,1.46-1.46,1.46h-13.06c-.81,0-1.46-.65-1.46-1.46v-2.61c0-6.62.53-11.12,1.59-13.5,1.06-2.38,3.25-3.57,6.56-3.57,1.36,0,2.52.21,3.47.64.96.42,1.71,1,2.26,1.72.55.72.99,1.72,1.31,2.99.32,1.27.53,2.59.64,3.95.11,1.36.16,3.04.16,5.03v5.35Z"/>
    <path class="cls-1" d="M171.28,230.41l13.71-72.46c.17-.9-.52-1.73-1.44-1.73h-10.54c-.72,0-1.33.53-1.44,1.24l-7.72,50.04c-.25,1.65-2.64,1.65-2.89,0l-7.67-50.04c-.11-.71-.72-1.24-1.44-1.24h-10.97c-.92,0-1.61.84-1.43,1.74l14.32,72.46c.14.68.74,1.18,1.43,1.18h14.65c.7,0,1.31-.5,1.44-1.19Z"/>
    <rect class="cls-1" x="198.17" y="126.03" width="14.01" height="105.57" rx="1.46" ry="1.46"/>
    <path class="cls-1" d="M270.44,127.38v-30.89c0-.81-.65-1.46-1.45-1.46h-11.02c-.8,0-1.45.65-1.45,1.46v30.89s-.01.08-.01.11v30.34c0,1.22-1.4,1.9-2.36,1.14-3.17-2.49-6.56-3.73-10.19-3.73-2.97,0-5.57.58-7.8,1.75-2.23,1.17-4,2.7-5.32,4.58-1.32,1.89-2.39,4.27-3.22,7.13-.83,2.86-1.38,5.76-1.66,8.69-.28,2.93-.41,6.26-.41,10v14.64c0,10.99,1.52,18.87,4.55,23.62,3.03,4.75,7.82,7.11,14.36,7.07,3.44,0,6.65-1.22,9.65-3.66.96-.78,2.39-.12,2.39,1.12,0,.81.65,1.46,1.46,1.46h11.02c.81,0,1.46-.65,1.46-1.46v-102.69s0-.08-.01-.11ZM256.51,218.08c0,.52-.27,1.01-.72,1.27-2.71,1.58-5.32,2.37-7.81,2.37-1.44,0-2.7-.32-3.76-.96-1.06-.64-1.89-1.45-2.48-2.45-.59-1-1.06-2.33-1.4-4.01-.34-1.68-.56-3.34-.67-5-.11-1.66-.16-3.67-.16-6.05v-21.33c0-10.48,2.74-15.73,8.21-15.73,2.61,0,5.32.95,8.15,2.86.4.27.64.74.64,1.22v47.8Z"/>
    <rect class="cls-1" x="58.43" y="126.03" width="14.01" height="105.57" rx="1.46" ry="1.46"/>
  </g>
</svg>